<svg width="391" height="41" xmlns="http://www.w3.org/2000/svg">
 <desc>Created with Lunacy</desc>

 <g>
  <title>background</title>
  <rect fill="none" id="canvas_background" height="402" width="582" y="-1" x="-1"/>
 </g>
 <g>
  <title>Layer 1</title>
  <g stroke="null" fill="#FF1040" id="EventCreator">
   <path stroke="null" id="svg_1" d="m16.694404,1.771999q-11.747313,0 -12.213477,0.524515q-0.372931,0.349677 -0.372931,18.270615l0.093233,17.833519l12.306709,0.087419l5.314261,0q6.992448,0 7.365379,-0.349677q0.559396,-0.349677 0.559396,-2.884834q0,-2.272899 -0.466163,-2.709995q-0.559396,-0.524515 -9.416497,-0.524515l-8.857101,0l0,-4.37096q0,-3.933864 -0.279698,-4.982895q-0.186465,-0.611934 -1.212024,-0.611934l-1.025559,0l0,12.326108l18.832994,0l0,1.923223l-20.79088,0l0,-15.385781q3.636073,-0.087419 10.90822,-0.087419q7.272146,0 10.90822,-0.087419l0.186465,-1.049031l0.093233,-1.049031l-22.096137,0l0,-14.599008l11.187917,0q11.28115,0 11.467615,-0.611934q0.186465,-0.524515 0.186465,-0.611934q0,-0.699354 -2.2842,-0.874192q-2.2842,-0.174838 -10.39544,-0.174838zm166.32704,0.174838q-1.957886,0 -2.703747,0.174838q-7.178914,1.223869 -11.747313,6.294183q-4.5684,5.070314 -4.5684,11.626755q0,0.874192 0.186465,2.622576q1.025559,6.993537 6.526285,11.451916q5.500726,4.45838 12.772872,4.45838q2.796979,0 5.127796,-0.611934q3.076677,-0.699354 6.153355,-2.622576q3.076677,-1.923223 3.076677,-3.059672q0,-0.699354 -1.724804,-2.360319q-1.724804,-1.660965 -2.377432,-1.660965q-0.559396,0 -1.957886,1.049031q-3.915771,2.884834 -8.204473,2.884834q-2.983445,0 -5.873657,-1.398707q-2.610514,-1.13645 -4.521783,-3.802736q-1.911269,-2.666286 -2.190967,-5.288862q-0.279698,-2.622576 -1.491722,-2.622576q-0.279698,0 -0.466163,0.087419q-0.652629,0.262258 -0.652629,1.398707q0,0.174838 0.046616,0.568225q0.046616,0.393386 0.046616,0.655644q0.372931,4.720637 3.962387,8.173696q3.589457,3.453059 9.090183,4.41467q1.305257,0.174838 2.051118,0.174838q3.822538,0 8.018008,-2.18548q1.77142,-0.874192 2.237583,-0.874192q0.186465,0 0.559396,0.174838q0.227255,0.182351 0.250563,0.385737q0.04516,0.381913 -0.623493,0.838132q-1.025559,0.786773 -3.729306,1.923223q-3.263143,1.398707 -6.805983,1.398707q-5.966889,0 -10.768371,-3.802736q-4.801481,-3.802736 -6.013506,-9.92208q-0.279698,-1.311288 -0.279698,-2.535157q0,-6.206764 5.174412,-10.971111q5.174412,-4.764347 11.980395,-4.764347q1.118792,0 3.16991,0.349677q4.5684,0.874192 8.018008,3.759026q1.212024,1.049031 2.424049,1.049031q0.469077,0 0.675937,-0.218234q0.163157,-0.172434 0.163157,-0.48112q0,-0.524515 -0.652629,-1.398707q-1.025559,-1.136436 -3.542841,-2.622576q-2.517281,-1.486127 -4.288702,-1.923223q-2.796979,-0.786773 -6.526285,-0.786773zm-43.166715,2.098061q0.093233,-0.524515 2.517281,-0.524515q2.703747,0 3.356375,0.611934q0.372931,0.524515 0.372931,2.098061l0,0.699354q-0.093233,1.573546 -0.233082,1.879513q-0.139849,0.305967 -0.88571,0.305967q-0.652629,0 -0.839094,-0.262258q-0.186465,-0.262258 -0.279698,-1.398707q-0.093233,-1.573546 -0.932326,-1.573546q-0.839094,0 -0.839094,15.210942l0,15.298361l4.94133,0q3.356375,0 4.102236,-0.131129q0.745861,-0.131129 0.745861,-0.655644q0,-0.524515 -0.559396,-0.611934q-0.559396,-0.087419 -3.356375,-0.174838l-4.009004,-0.174838l0,-14.074493l1.957886,-0.087419q1.957886,-0.087419 1.957886,-0.874192q0,-0.786773 -1.39849,-0.786773q-1.77142,0 -2.237583,-0.349677q-0.466163,-0.349677 -0.466163,-1.748384q0,-1.573546 0.652629,-1.835803q0.559396,-0.174838 1.165408,0.174838q0.606012,0.349677 0.606012,0.961611q0,0.437096 1.957886,0.611934l1.957886,0.087419l0.093233,2.447738l0,1.049031q0,1.486127 -0.51278,1.966932q-0.51278,0.480806 -1.911269,0.480806l-1.584955,0l0,9.878371l4.009004,0.087419l3.915771,0.174838l0,5.682249l-14.264595,0l-0.093233,-16.959326q0,-17.221584 0.093233,-17.483842zm171.734533,-0.524515q-2.424049,0 -2.517281,0.524515q-0.093233,0.262258 -0.093233,17.483842l0.093233,16.959326l14.264595,0l0,-5.682249l-3.915771,-0.174838l-4.009004,-0.087419l0,-9.878371l1.584955,0q1.39849,0 1.911269,-0.480806q0.51278,-0.480806 0.51278,-1.966932l0,-1.049031l-0.093233,-2.447738l-1.957886,-0.087419q-1.957886,-0.174838 -1.957886,-0.611934q0,-0.611934 -0.606012,-0.961611q-0.606012,-0.349677 -1.165408,-0.174838q-0.652629,0.262258 -0.652629,1.835803q0,1.398707 0.466163,1.748384q0.466163,0.349677 2.237583,0.349677q1.39849,0 1.39849,0.786773q0,0.786773 -1.957886,0.874192l-1.957886,0.087419l0,14.074493l4.009004,0.174838q2.796979,0.087419 3.356375,0.174838q0.559396,0.087419 0.559396,0.611934q0,0.524515 -0.745861,0.655644q-0.745861,0.131129 -4.102236,0.131129l-4.94133,0l0,-15.298361q0,-15.210942 0.839094,-15.210942q0.839094,0 0.932326,1.573546q0.093233,1.13645 0.279698,1.398707q0.186465,0.262258 0.839094,0.262258q0.745861,0 0.88571,-0.305967q0.139849,-0.305967 0.233082,-1.879513l0,-0.699354q0,-1.573546 -0.372931,-2.098061q-0.652629,-0.611934 -3.356375,-0.611934zm-231.310194,9.441275q1.864653,-0.437096 3.356375,-0.437096q5.221028,0 9.276648,3.409349q4.05562,3.409349 4.428551,8.217406l0.093233,2.447738l-19.578856,0l0,-1.748384q0,-1.13645 0.139849,-1.398707q0.139849,-0.262258 0.88571,-0.262258q1.025559,0 1.212024,0.524515q0.186465,0.611934 7.645077,0.611934l7.272146,0l-0.279698,-1.13645q-1.025559,-3.846445 -4.102236,-5.988216q-3.076677,-2.141771 -6.805983,-2.141771q-3.356375,0 -6.199971,1.660965q-2.843596,1.660965 -4.335318,4.895476q-0.839094,1.835803 -0.839094,3.759026q0,2.972253 1.678188,5.638539q1.678188,2.666286 4.661632,4.064993q1.77142,0.874192 4.754865,0.874192q3.16991,0 5.221028,-0.961611q1.212024,-0.611934 1.39849,-0.830482q0.186465,-0.218548 -0.186465,-0.568225q-0.372931,-0.349677 -0.839094,-0.349677q-0.559396,0 -2.517281,0.611934q-2.051118,0.611934 -3.076677,0.611934q-0.279698,0 -1.584955,-0.174838q-4.102236,-0.961611 -6.33982,-4.196122q-1.212024,-1.835803 -1.212024,-4.633218q0,-2.010642 0.186465,-2.753705q0.186465,-0.743063 1.118792,-1.966932q2.703747,-3.846445 6.992448,-3.846445q0.932326,0 1.258641,0.04371q0.326314,0.04371 0.466163,0.218548q0.139849,0.174838 0.139849,0.611934q0,0.611934 -0.326314,0.830482q-0.326314,0.218548 -1.631571,0.480806q-2.610514,0.524515 -4.288702,2.316609q-1.678188,1.792094 -1.678188,4.064993q0,1.486127 0.978943,3.103382q0.978943,1.617255 2.377432,2.404028q2.144351,1.13645 3.822538,1.13645q1.678188,0 3.542841,-1.13645q1.491722,-0.961611 2.051118,-0.961611q0.466163,0 2.377432,1.879513q1.911269,1.879513 1.911269,2.316609q0,0.874192 -4.009004,2.884834q-2.424049,1.13645 -5.966889,1.13645q-3.822538,0 -5.873657,-0.961611q-3.822538,-1.748384 -5.873657,-4.895476q-2.051118,-3.147092 -2.051118,-6.731279q0,-4.283541 2.703747,-7.824019q2.703747,-3.540478 7.645077,-4.851766zm168.09846,-0.437096q-1.491722,0 -3.356375,0.437096q-4.94133,1.311288 -7.645077,4.851766q-2.703747,3.540478 -2.703747,7.824019q0,3.584188 2.051118,6.731279q2.051118,3.147092 5.873657,4.895476q2.051118,0.961611 5.873657,0.961611q3.542841,0 5.966889,-1.13645q4.009004,-2.010642 4.009004,-2.884834q0,-0.437096 -1.911269,-2.316609q-1.911269,-1.879513 -2.377432,-1.879513q-0.559396,0 -2.051118,0.961611q-1.864653,1.13645 -3.542841,1.13645q-1.678188,0 -3.822538,-1.13645q-1.39849,-0.786773 -2.377432,-2.404028q-0.978943,-1.617255 -0.978943,-3.103382q0,-2.272899 1.678188,-4.064993q1.678188,-1.792094 4.288702,-2.316609q1.305257,-0.262258 1.631571,-0.480806q0.326314,-0.218548 0.326314,-0.830482q0,-0.437096 -0.139849,-0.611934q-0.139849,-0.174838 -0.466163,-0.218548q-0.326314,-0.04371 -1.258641,-0.04371q-4.288702,0 -6.992448,3.846445q-0.932326,1.223869 -1.118792,1.966932q-0.186465,0.743063 -0.186465,2.753705q0,2.797415 1.212024,4.633218q2.237583,3.234511 6.33982,4.196122q1.305257,0.174838 1.584955,0.174838q1.025559,0 3.076677,-0.611934q1.957886,-0.611934 2.517281,-0.611934q0.466163,0 0.839094,0.349677q0.372931,0.349677 0.186465,0.568225q-0.186465,0.218548 -1.39849,0.830482q-2.051118,0.961611 -5.221028,0.961611q-2.983445,0 -4.754865,-0.874192q-2.983445,-1.398707 -4.661632,-4.064993q-1.678188,-2.666286 -1.678188,-5.638539q0,-1.923223 0.839094,-3.759026q1.491722,-3.234511 4.335318,-4.895476q2.843596,-1.660965 6.199971,-1.660965q3.729306,0 6.805983,2.141771q3.076677,2.141771 4.102236,5.988216l0.279698,1.13645l-7.272146,0q-7.458612,0 -7.645077,-0.611934q-0.186465,-0.524515 -1.212024,-0.524515q-0.745861,0 -0.88571,0.262258q-0.139849,0.262258 -0.139849,1.398707l0,1.748384l19.578856,0l-0.093233,-2.447738q-0.372931,-4.808056 -4.428551,-8.217406q-4.05562,-3.409349 -9.276648,-3.409349zm32.911124,1.13645q1.678188,-0.611934 4.195469,-0.611934q3.636073,0 5.780424,1.049031q1.678188,0.699354 1.77142,0.699354q0.279698,0 0.372931,-0.786773q0.093233,-0.611934 0.559396,-0.743063q0.466163,-0.131129 2.610514,-0.131129l3.076677,0l0,25.613828l-3.076677,0q-2.237583,0 -2.65713,-0.131129q-0.419547,-0.131129 -0.51278,-0.917902l-0.093233,-0.961611l-1.957886,0.786773q-2.517281,0.961611 -5.966889,0.961611q-2.517281,0 -4.195469,-0.524515q-4.102236,-1.223869 -6.666134,-4.720637q-2.563898,-3.496768 -2.563898,-7.518052q0,-1.573546 0.372931,-2.884834q1.77142,-6.731279 8.950334,-9.179017zm-73.280859,0.174838q0.559396,-0.349677 2.796979,-0.349677q1.77142,0 2.424049,0.349677q0.652629,0.349677 0.839094,1.311288q0.093233,0.262258 0.139849,0.349677q0.046616,0.087419 0.279698,0q0.233082,-0.087419 0.699245,-0.437096q0.093233,-0.087419 0.186465,-0.131129q0.093233,-0.04371 0.186465,-0.131129q1.491722,-0.961611 2.424049,-0.961611q0.932326,0 0.932326,0.874192q0,0.611934 -0.88571,1.398707q-0.88571,0.786773 -2.2842,1.704675q-1.39849,0.917902 -1.584955,1.005321q-1.025559,0.699354 -1.584955,0.699354q-1.025559,0 -1.025559,-2.010642q0,-1.748384 -0.839094,-1.748384q-0.279698,0 -0.419547,0.087419q-0.139849,0.087419 -0.233082,0.699354q-0.093233,0.611934 -0.093233,1.704675l0,15.648038q0,1.09274 0.093233,1.704675q0.093233,0.611934 0.233082,0.699354q0.139849,0.087419 0.419547,0.087419q0.279698,0 0.419547,-0.131129q0.139849,-0.131129 0.279698,-0.917902q0.139849,-0.786773 0.139849,-2.098061l0,-11.189659l5.407493,-3.846445q6.33982,-4.45838 7.178914,-4.45838q0.839094,0 0.839094,2.272899q0,0.349677 -0.046616,1.13645q-0.046616,0.786773 -0.046616,1.311288l-0.093233,4.37096l-2.983445,0.087419l-1.678188,0q-1.39849,0 -1.491722,-0.437096q-0.093233,-0.174838 -0.093233,-0.349677q0,-1.398707 2.424049,-1.398707l1.584955,0l0,-3.496768l-1.584955,1.13645q-0.839094,0.611934 -4.195469,2.972253l-2.703747,1.835803l-0.186465,7.69289l-0.093233,7.605471l-6.060122,0l-0.186465,-12.15127l0,-4.283541q0,-7.955148 0.466163,-8.217406zm164.648852,-0.349677q-2.237583,0 -2.796979,0.349677q-0.466163,0.262258 -0.466163,8.217406l0,4.283541l0.186465,12.15127l6.060122,0l0.093233,-7.605471l0.186465,-7.69289l2.703747,-1.835803q3.356375,-2.360319 4.195469,-2.972253l1.584955,-1.13645l0,3.496768l-1.584955,0q-2.424049,0 -2.424049,1.398707q0,0.174838 0.093233,0.349677q0.093233,0.437096 1.491722,0.437096l1.678188,0l2.983445,-0.087419l0.093233,-4.37096q0,-0.524515 0.046616,-1.311288q0.046616,-0.786773 0.046616,-1.13645q0,-2.272899 -0.839094,-2.272899q-0.839094,0 -7.178914,4.45838l-5.407493,3.846445l0,11.189659q0,1.311288 -0.139849,2.098061q-0.139849,0.786773 -0.279698,0.917902q-0.139849,0.131129 -0.419547,0.131129q-0.279698,0 -0.419547,-0.087419q-0.139849,-0.087419 -0.233082,-0.699354q-0.093233,-0.611934 -0.093233,-1.704675l0,-15.648038q0,-1.09274 0.093233,-1.704675q0.093233,-0.611934 0.233082,-0.699354q0.139849,-0.087419 0.419547,-0.087419q0.839094,0 0.839094,1.748384q0,2.010642 1.025559,2.010642q0.559396,0 1.584955,-0.699354q0.186465,-0.087419 1.584955,-1.005321q1.39849,-0.917902 2.2842,-1.704675q0.88571,-0.786773 0.88571,-1.398707q0,-0.874192 -0.932326,-0.874192q-0.932326,0 -2.424049,0.961611q-0.093233,0.087419 -0.186465,0.131129q-0.093233,0.04371 -0.186465,0.131129q-0.466163,0.349677 -0.699245,0.437096q-0.233082,0.087419 -0.279698,0q-0.046616,-0.087419 -0.139849,-0.349677q-0.186465,-0.961611 -0.839094,-1.311288q-0.652629,-0.349677 -2.424049,-0.349677zm-313.168456,0.087419q-0.745861,-0.174838 -1.118792,0.349677q-0.279698,0.349677 -3.542841,11.364497l-3.263143,10.752563q-0.652629,0 -2.004502,-0.087419q-1.351873,-0.087419 -2.004502,-0.087419l-2.703747,-9.790951q-2.890212,-9.703532 -2.890212,-9.790951l0.839094,-0.087419l0.186465,0q0.559396,0 1.025559,1.267579q0.466163,1.267579 2.424049,8.261115q1.39849,4.808056 1.818037,5.725958q0.419547,0.917902 1.072175,0.917902q0.774559,0 1.012885,-0.335198q0.105906,-0.149022 0.105906,-0.364156q0,-1.13645 -2.424049,-9.179017q-2.424049,-8.042567 -2.890212,-8.304825q-0.559396,-0.349677 -2.796979,-0.349677q-2.330816,0 -2.703747,0.699354l-0.093233,0.174838l0,0.174838q0,1.311288 2.796979,11.451916q2.983445,10.839982 3.449608,11.451916q0.466163,0.524515 3.915771,0.524515l3.636073,0l0.839094,-2.622576q6.060122,-18.969968 6.060122,-21.242868q0,-0.699354 -0.745861,-0.874192zm51.184722,0.437096q-3.449608,0 -3.636073,0.437096q-0.093233,0.262258 -0.093233,12.326108l0.093233,11.801593l3.263143,0.174838l3.076677,0.087419l0,-9.004178q0,-8.916759 -0.652629,-9.091598q-0.559396,-0.174838 -0.652629,-0.174838q-0.745861,0 -0.932326,1.617255q-0.186465,1.617255 -0.186465,6.949827q0,7.701496 -0.821613,7.77949q-0.008741,0.00082 -0.017481,0.00082q-0.652629,0 -0.745861,-1.398707q-0.093233,-1.398707 -0.093233,-9.004178l0,-10.228047l6.899216,0.087419q5.127796,0.087419 6.199971,0.218548q1.072175,0.131129 2.097735,0.917902q1.39849,1.049031 2.424049,2.447738q0.652629,1.049031 0.792477,2.316609q0.139849,1.267579 0.233082,6.862408l0.186465,7.78031l-2.051118,0l-0.093233,-5.857087l-0.186465,-5.769668l-1.957886,0l0,13.28772l6.433053,0l0.186465,-7.78031l0,-2.447738q0,-5.332572 -0.372931,-7.080956q-1.118792,-4.021284 -4.754865,-6.031925q-1.39849,-0.786773 -2.65713,-0.917902q-1.258641,-0.131129 -7.318763,-0.218548q-1.118792,0 -2.610514,-0.04371q-1.491722,-0.04371 -2.051118,-0.04371zm231.962822,0.437096q1.305257,-0.349677 3.636073,-0.349677l0.932326,0q4.848098,0.174838 8.157856,2.884834q3.309759,2.709995 4.335318,7.343214q0.279698,1.223869 0.279698,2.272899q0,3.496768 -2.097735,6.64386q-2.097735,3.147092 -5.547342,4.633218q-2.610514,1.223869 -5.780424,1.223869q-3.729306,0 -6.945832,-1.835803q-3.216526,-1.835803 -4.987947,-5.157733q-1.305257,-2.272899 -1.305257,-6.031925q0,-2.098061 0.559396,-3.496768q2.330816,-6.119345 8.763869,-8.129986zm-50.252396,3.059672q-3.729306,-2.18548 -7.085681,-2.18548q-1.77142,0 -3.449608,0.611934q-5.500726,2.010642 -7.085681,7.518052q-0.279698,1.223869 -0.279698,2.360319q0,4.108703 3.263143,7.255794q3.263143,3.147092 7.831542,3.147092q3.356375,0 6.805983,-2.18548q1.584955,-0.961611 2.330816,-0.961611q1.118792,0 1.118792,2.098061q0,1.21663 0.499669,1.437226q0.110714,0.0489 0.246192,0.0489q0.652629,0 0.745861,-1.442417q0.093233,-1.442417 0.093233,-9.310146q0,-7.867729 -0.093233,-9.266436q-0.093233,-1.398707 -0.652629,-1.398707q-0.839094,0 -0.932326,1.573546q-0.186465,1.748384 -1.025559,1.748384q-0.652629,0 -2.330816,-1.049031zm59.016265,-0.174838q-2.051118,-0.961611 -5.221028,-0.961611q-2.237583,0 -3.263143,0.437096q-3.16991,1.13645 -5.221028,3.846445q-2.051118,2.709995 -2.051118,5.857087q0,1.049031 0.279698,2.098061q1.39849,5.769668 7.73831,7.78031q1.212024,0.437096 2.890212,0.437096q4.195469,0 7.598461,-3.147092q3.402992,-3.147092 3.402992,-7.168375q0,-1.223869 -0.186465,-1.835803q-1.118792,-4.895476 -5.966889,-7.343214zm-68.153064,-0.087419q1.584955,-0.437096 2.051118,-0.437096q0.466163,0 1.025559,0.349677q0.466163,0.174838 0.466163,0.699354q0,0.874192 -1.864653,1.398707q-4.102236,1.13645 -5.500726,3.846445q-0.745861,1.398707 -0.745861,2.797415q0,2.272899 1.77142,4.108703q1.77142,1.835803 4.5684,2.360319q1.025559,0.174838 1.305257,0.393386q0.279698,0.218548 0.279698,0.830482q0,0.699354 -0.279698,0.830482q-0.279698,0.131129 -1.678188,0.04371q-3.449608,-0.087419 -5.920273,-2.797415q-2.470665,-2.709995 -2.470665,-6.119345q0,-0.611934 0.186465,-1.660965q0.372931,-2.098061 2.377432,-4.021284q2.004502,-1.923223 4.428551,-2.622576zm59.016265,1.835803q1.864653,-0.874192 3.449608,-0.874192q1.678188,0 1.678188,0.874192q0,0.699354 -2.237583,1.398707q-2.424049,0.699354 -3.869155,2.404028q-1.445106,1.704675 -1.445106,3.627897q0,2.360319 2.051118,4.283541q1.491722,1.398707 2.890212,1.748384q1.864653,0.349677 2.2842,0.524515q0.419547,0.174838 0.419547,0.611934q0,1.311288 -1.584955,1.311288q-1.584955,0 -3.729306,-1.09274q-2.144351,-1.09274 -3.263143,-2.666286q-0.932326,-1.223869 -1.118792,-1.923223q-0.186465,-0.699354 -0.186465,-2.709995q0,-2.010642 0.233082,-2.753705q0.233082,-0.743063 1.165408,-2.054351q1.39849,-1.748384 3.263143,-2.709995z"/>
  </g>
 </g>
</svg>