<?xml version="1.0" encoding="utf-8"?>
<svg width="931px" height="156px" viewBox="0 0 931 156" version="1.1" xmlns:xlink="http://www.w3.org/1999/xlink" xmlns="http://www.w3.org/2000/svg">
  <desc>Created with Lunacy</desc>
  <g id="EventCreator" fill="#FFFFFF">
    <path d="M189.308 38.112Q171.164 38.112 170.444 38.976Q169.868 39.552 169.868 69.072L170.012 98.448L189.02 98.592L197.228 98.592Q208.028 98.592 208.604 98.016Q209.468 97.44 209.468 93.264Q209.468 89.52 208.748 88.8Q207.884 87.936 194.204 87.936L180.524 87.936L180.524 80.736Q180.524 74.256 180.092 72.528Q179.804 71.52 178.22 71.52L176.636 71.52L176.636 91.824L205.724 91.824L205.724 94.992L173.612 94.992L173.612 69.648Q179.228 69.504 190.46 69.504Q201.692 69.504 207.308 69.36L207.596 67.632L207.74 65.904L173.612 65.904L173.612 41.856L190.892 41.856Q208.316 41.856 208.604 40.848Q208.892 39.984 208.892 39.84Q208.892 38.688 205.364 38.4Q201.836 38.112 189.308 38.112ZM446.204 38.4Q443.18 38.4 442.028 38.688Q430.94 40.704 423.884 49.056Q416.828 57.408 416.828 68.208Q416.828 69.648 417.116 72.528Q418.7 84.048 427.196 91.392Q435.692 98.736 446.924 98.736Q451.244 98.736 454.844 97.728Q459.596 96.576 464.348 93.408Q469.1 90.24 469.1 88.368Q469.1 87.216 466.436 84.48Q463.772 81.744 462.764 81.744Q461.9 81.744 459.74 83.472Q453.692 88.224 447.068 88.224Q442.46 88.224 437.996 85.92Q433.964 84.048 431.012 79.656Q428.06 75.264 427.628 70.944Q427.196 66.624 425.324 66.624Q424.892 66.624 424.604 66.768Q423.596 67.2 423.596 69.072Q423.596 69.36 423.668 70.008Q423.74 70.656 423.74 71.088Q424.316 78.864 429.86 84.552Q435.404 90.24 443.9 91.824Q445.916 92.112 447.068 92.112Q452.972 92.112 459.452 88.512Q462.188 87.072 462.908 87.072Q463.196 87.072 463.772 87.36Q464.122 87.6603 464.16 87.9954Q464.229 88.6244 463.196 89.376Q461.612 90.672 457.436 92.544Q452.396 94.848 446.924 94.848Q437.708 94.848 430.292 88.584Q422.876 82.32 421.004 72.24Q420.572 70.08 420.572 68.064Q420.572 57.84 428.564 49.992Q436.556 42.144 447.068 42.144Q448.796 42.144 451.964 42.72Q459.02 44.16 464.348 48.912Q466.22 50.64 468.092 50.64Q468.816 50.64 469.136 50.2805Q469.388 49.9965 469.388 49.488Q469.388 48.624 468.38 47.184Q466.796 45.312 462.908 42.864Q459.02 40.416 456.284 39.696Q451.964 38.4 446.204 38.4ZM379.532 41.856Q379.676 40.992 383.42 40.992Q387.596 40.992 388.604 42Q389.18 42.864 389.18 45.456L389.18 46.608Q389.036 49.2 388.82 49.704Q388.604 50.208 387.452 50.208Q386.444 50.208 386.156 49.776Q385.868 49.344 385.724 47.472Q385.58 44.88 384.284 44.88Q382.988 44.88 382.988 69.936L382.988 95.136L390.62 95.136Q395.804 95.136 396.956 94.92Q398.108 94.704 398.108 93.84Q398.108 92.976 397.244 92.832Q396.38 92.688 392.06 92.544L385.868 92.256L385.868 69.072L388.892 68.928Q391.916 68.784 391.916 67.488Q391.916 66.192 389.756 66.192Q387.02 66.192 386.3 65.616Q385.58 65.04 385.58 62.736Q385.58 60.144 386.588 59.712Q387.452 59.424 388.388 60Q389.324 60.576 389.324 61.584Q389.324 62.304 392.348 62.592L395.372 62.736L395.516 66.768L395.516 68.496Q395.516 70.944 394.724 71.736Q393.932 72.528 391.772 72.528L389.324 72.528L389.324 88.8L395.516 88.944L401.564 89.232L401.564 98.592L379.532 98.592L379.388 70.656Q379.388 42.288 379.532 41.856ZM644.78 40.992Q641.036 40.992 640.892 41.856Q640.748 42.288 640.748 70.656L640.892 98.592L662.924 98.592L662.924 89.232L656.876 88.944L650.684 88.8L650.684 72.528L653.132 72.528Q655.292 72.528 656.084 71.736Q656.876 70.944 656.876 68.496L656.876 66.768L656.732 62.736L653.708 62.592Q650.684 62.304 650.684 61.584Q650.684 60.576 649.748 60Q648.812 59.424 647.948 59.712Q646.94 60.144 646.94 62.736Q646.94 65.04 647.66 65.616Q648.38 66.192 651.116 66.192Q653.276 66.192 653.276 67.488Q653.276 68.784 650.252 68.928L647.228 69.072L647.228 92.256L653.42 92.544Q657.74 92.688 658.604 92.832Q659.468 92.976 659.468 93.84Q659.468 94.704 658.316 94.92Q657.164 95.136 651.98 95.136L644.348 95.136L644.348 69.936Q644.348 44.88 645.644 44.88Q646.94 44.88 647.084 47.472Q647.228 49.344 647.516 49.776Q647.804 50.208 648.812 50.208Q649.964 50.208 650.18 49.704Q650.396 49.2 650.54 46.608L650.54 45.456Q650.54 42.864 649.964 42Q648.956 40.992 644.78 40.992ZM287.516 56.544Q290.396 55.824 292.7 55.824Q300.764 55.824 307.028 61.44Q313.292 67.056 313.868 74.976L314.012 79.008L283.772 79.008L283.772 76.128Q283.772 74.256 283.988 73.824Q284.204 73.392 285.356 73.392Q286.94 73.392 287.228 74.256Q287.516 75.264 299.036 75.264L310.268 75.264L309.836 73.392Q308.252 67.056 303.5 63.528Q298.748 60 292.988 60Q287.804 60 283.412 62.736Q279.02 65.472 276.716 70.8Q275.42 73.824 275.42 76.992Q275.42 81.888 278.012 86.28Q280.604 90.672 285.212 92.976Q287.948 94.416 292.556 94.416Q297.452 94.416 300.62 92.832Q302.492 91.824 302.78 91.464Q303.068 91.104 302.492 90.528Q301.916 89.952 301.196 89.952Q300.332 89.952 297.308 90.96Q294.14 91.968 292.556 91.968Q292.124 91.968 290.108 91.68Q283.772 90.096 280.316 84.768Q278.444 81.744 278.444 77.136Q278.444 73.824 278.732 72.6Q279.02 71.376 280.46 69.36Q284.636 63.024 291.26 63.024Q292.7 63.024 293.204 63.096Q293.708 63.168 293.924 63.456Q294.14 63.744 294.14 64.464Q294.14 65.472 293.636 65.832Q293.132 66.192 291.116 66.624Q287.084 67.488 284.492 70.44Q281.9 73.392 281.9 77.136Q281.9 79.584 283.412 82.248Q284.924 84.912 287.084 86.208Q290.396 88.08 292.988 88.08Q295.58 88.08 298.46 86.208Q300.764 84.624 301.628 84.624Q302.348 84.624 305.3 87.72Q308.252 90.816 308.252 91.536Q308.252 92.976 302.06 96.288Q298.316 98.16 292.844 98.16Q286.94 98.16 283.772 96.576Q277.868 93.696 274.7 88.512Q271.532 83.328 271.532 77.424Q271.532 70.368 275.708 64.536Q279.884 58.704 287.516 56.544ZM547.148 55.824Q544.844 55.824 541.964 56.544Q534.332 58.704 530.156 64.536Q525.98 70.368 525.98 77.424Q525.98 83.328 529.148 88.512Q532.316 93.696 538.22 96.576Q541.388 98.16 547.292 98.16Q552.764 98.16 556.508 96.288Q562.7 92.976 562.7 91.536Q562.7 90.816 559.748 87.72Q556.796 84.624 556.076 84.624Q555.212 84.624 552.908 86.208Q550.028 88.08 547.436 88.08Q544.844 88.08 541.532 86.208Q539.372 84.912 537.86 82.248Q536.348 79.584 536.348 77.136Q536.348 73.392 538.94 70.44Q541.532 67.488 545.564 66.624Q547.58 66.192 548.084 65.832Q548.588 65.472 548.588 64.464Q548.588 63.744 548.372 63.456Q548.156 63.168 547.652 63.096Q547.148 63.024 545.708 63.024Q539.084 63.024 534.908 69.36Q533.468 71.376 533.18 72.6Q532.892 73.824 532.892 77.136Q532.892 81.744 534.764 84.768Q538.22 90.096 544.556 91.68Q546.572 91.968 547.004 91.968Q548.588 91.968 551.756 90.96Q554.78 89.952 555.644 89.952Q556.364 89.952 556.94 90.528Q557.516 91.104 557.228 91.464Q556.94 91.824 555.068 92.832Q551.9 94.416 547.004 94.416Q542.396 94.416 539.66 92.976Q535.052 90.672 532.46 86.28Q529.868 81.888 529.868 76.992Q529.868 73.824 531.164 70.8Q533.468 65.472 537.86 62.736Q542.252 60 547.436 60Q553.196 60 557.948 63.528Q562.7 67.056 564.284 73.392L564.716 75.264L553.484 75.264Q541.964 75.264 541.676 74.256Q541.388 73.392 539.804 73.392Q538.652 73.392 538.436 73.824Q538.22 74.256 538.22 76.128L538.22 79.008L568.46 79.008L568.316 74.976Q567.74 67.056 561.476 61.44Q555.212 55.824 547.148 55.824ZM597.98 57.696Q600.572 56.688 604.46 56.688Q610.076 56.688 613.388 58.416Q615.98 59.568 616.124 59.568Q616.556 59.568 616.7 58.272Q616.844 57.264 617.564 57.048Q618.284 56.832 621.596 56.832L626.348 56.832L626.348 99.024L621.596 99.024Q618.14 99.024 617.492 98.808Q616.844 98.592 616.7 97.296L616.556 95.712L613.532 97.008Q609.644 98.592 604.316 98.592Q600.428 98.592 597.836 97.728Q591.5 95.712 587.54 89.952Q583.58 84.192 583.58 77.568Q583.58 74.976 584.156 72.816Q586.892 61.728 597.98 57.696ZM484.796 57.984Q485.66 57.408 489.116 57.408Q491.852 57.408 492.86 57.984Q493.868 58.56 494.156 60.144Q494.3 60.576 494.372 60.72Q494.444 60.864 494.804 60.72Q495.164 60.576 495.884 60Q496.028 59.856 496.172 59.784Q496.316 59.712 496.46 59.568Q498.764 57.984 500.204 57.984Q501.644 57.984 501.644 59.424Q501.644 60.432 500.276 61.728Q498.908 63.024 496.748 64.536Q494.588 66.048 494.3 66.192Q492.716 67.344 491.852 67.344Q490.268 67.344 490.268 64.032Q490.268 61.152 488.972 61.152Q488.54 61.152 488.324 61.296Q488.108 61.44 487.964 62.448Q487.82 63.456 487.82 65.256L487.82 91.032Q487.82 92.832 487.964 93.84Q488.108 94.848 488.324 94.992Q488.54 95.136 488.972 95.136Q489.404 95.136 489.62 94.92Q489.836 94.704 490.052 93.408Q490.268 92.112 490.268 89.952L490.268 71.52L498.62 65.184Q508.412 57.84 509.708 57.84Q511.004 57.84 511.004 61.584Q511.004 62.16 510.932 63.456Q510.86 64.752 510.86 65.616L510.716 72.816L506.108 72.96L503.516 72.96Q501.356 72.96 501.212 72.24Q501.068 71.952 501.068 71.664Q501.068 69.36 504.812 69.36L507.26 69.36L507.26 63.6L504.812 65.472Q503.516 66.48 498.332 70.368L494.156 73.392L493.868 86.064L493.724 98.592L484.364 98.592L484.076 78.576L484.076 71.52Q484.076 58.416 484.796 57.984ZM739.1 57.408Q735.644 57.408 734.78 57.984Q734.06 58.416 734.06 71.52L734.06 78.576L734.348 98.592L743.708 98.592L743.852 86.064L744.14 73.392L748.316 70.368Q753.5 66.48 754.796 65.472L757.244 63.6L757.244 69.36L754.796 69.36Q751.052 69.36 751.052 71.664Q751.052 71.952 751.196 72.24Q751.34 72.96 753.5 72.96L756.092 72.96L760.7 72.816L760.844 65.616Q760.844 64.752 760.916 63.456Q760.988 62.16 760.988 61.584Q760.988 57.84 759.692 57.84Q758.396 57.84 748.604 65.184L740.252 71.52L740.252 89.952Q740.252 92.112 740.036 93.408Q739.82 94.704 739.604 94.92Q739.388 95.136 738.956 95.136Q738.524 95.136 738.308 94.992Q738.092 94.848 737.948 93.84Q737.804 92.832 737.804 91.032L737.804 65.256Q737.804 63.456 737.948 62.448Q738.092 61.44 738.308 61.296Q738.524 61.152 738.956 61.152Q740.252 61.152 740.252 64.032Q740.252 67.344 741.836 67.344Q742.7 67.344 744.284 66.192Q744.572 66.048 746.732 64.536Q748.892 63.024 750.26 61.728Q751.628 60.432 751.628 59.424Q751.628 57.984 750.188 57.984Q748.748 57.984 746.444 59.568Q746.3 59.712 746.156 59.784Q746.012 59.856 745.868 60Q745.148 60.576 744.788 60.72Q744.428 60.864 744.356 60.72Q744.284 60.576 744.14 60.144Q743.852 58.56 742.844 57.984Q741.836 57.408 739.1 57.408ZM255.404 57.552Q254.252 57.264 253.676 58.128Q253.244 58.704 248.204 76.848L243.164 94.56Q242.156 94.56 240.068 94.416Q237.98 94.272 236.972 94.272L232.796 78.144Q228.332 62.16 228.332 62.016L229.628 61.872L229.916 61.872Q230.78 61.872 231.5 63.96Q232.22 66.048 235.244 77.568Q237.404 85.488 238.052 87Q238.7 88.512 239.708 88.512Q241.436 88.512 241.436 87.36Q241.436 85.488 237.692 72.24Q233.948 58.992 233.228 58.56Q232.364 57.984 228.908 57.984Q225.308 57.984 224.732 59.136L224.588 59.424L224.588 59.712Q224.588 61.872 228.908 78.576Q233.516 96.432 234.236 97.44Q234.956 98.304 240.284 98.304L245.9 98.304L247.196 93.984Q256.556 62.736 256.556 58.992Q256.556 57.84 255.404 57.552ZM334.46 58.272Q329.132 58.272 328.844 58.992Q328.7 59.424 328.7 79.296L328.844 98.736L333.884 99.024L338.636 99.168L338.636 84.336Q338.636 69.648 337.628 69.36Q336.764 69.072 336.62 69.072Q335.468 69.072 335.18 71.736Q334.892 74.4 334.892 83.184Q334.892 95.8703 333.622 95.9987Q333.609 96 333.596 96Q332.588 96 332.444 93.696Q332.3 91.392 332.3 78.864L332.3 62.016L342.956 62.16Q350.876 62.304 352.532 62.52Q354.188 62.736 355.772 64.032Q357.932 65.76 359.516 68.064Q360.524 69.792 360.74 71.88Q360.956 73.968 361.1 83.184L361.388 96L358.22 96L358.076 86.352L357.788 76.848L354.764 76.848L354.764 98.736L364.7 98.736L364.988 85.92L364.988 81.888Q364.988 73.104 364.412 70.224Q362.684 63.6 357.068 60.288Q354.908 58.992 352.964 58.776Q351.02 58.56 341.66 58.416Q339.932 58.416 337.628 58.344Q335.324 58.272 334.46 58.272ZM692.732 58.992Q694.748 58.416 698.348 58.416L699.788 58.416Q707.276 58.704 712.388 63.168Q717.5 67.632 719.084 75.264Q719.516 77.28 719.516 79.008Q719.516 84.768 716.276 89.952Q713.036 95.136 707.708 97.584Q703.676 99.6 698.78 99.6Q693.02 99.6 688.052 96.576Q683.084 93.552 680.348 88.08Q678.332 84.336 678.332 78.144Q678.332 74.688 679.196 72.384Q682.796 62.304 692.732 58.992ZM615.116 64.032Q609.356 60.432 604.172 60.432Q601.436 60.432 598.844 61.44Q590.348 64.752 587.9 73.824Q587.468 75.84 587.468 77.712Q587.468 84.48 592.508 89.664Q597.548 94.848 604.604 94.848Q609.788 94.848 615.116 91.248Q617.564 89.664 618.716 89.664Q620.444 89.664 620.444 93.12Q620.444 95.1242 621.216 95.4875Q621.387 95.568 621.596 95.568Q622.604 95.568 622.748 93.192Q622.892 90.816 622.892 77.856Q622.892 64.896 622.748 62.592Q622.604 60.288 621.74 60.288Q620.444 60.288 620.3 62.88Q620.012 65.76 618.716 65.76Q617.708 65.76 615.116 64.032ZM706.268 63.744Q703.1 62.16 698.204 62.16Q694.748 62.16 693.164 62.88Q688.268 64.752 685.1 69.216Q681.932 73.68 681.932 78.864Q681.932 80.592 682.364 82.32Q684.524 91.824 694.316 95.136Q696.188 95.856 698.78 95.856Q705.26 95.856 710.516 90.672Q715.772 85.488 715.772 78.864Q715.772 76.848 715.484 75.84Q713.756 67.776 706.268 63.744ZM601.004 63.6Q603.452 62.88 604.172 62.88Q604.892 62.88 605.756 63.456Q606.476 63.744 606.476 64.608Q606.476 66.048 603.596 66.912Q597.26 68.784 595.1 73.248Q593.948 75.552 593.948 77.856Q593.948 81.6 596.684 84.624Q599.42 87.648 603.74 88.512Q605.324 88.8 605.756 89.16Q606.188 89.52 606.188 90.528Q606.188 91.68 605.756 91.896Q605.324 92.112 603.164 91.968Q597.836 91.824 594.02 87.36Q590.204 82.896 590.204 77.28Q590.204 76.272 590.492 74.544Q591.068 71.088 594.164 67.92Q597.26 64.752 601.004 63.6ZM692.156 66.624Q695.036 65.184 697.484 65.184Q700.076 65.184 700.076 66.624Q700.076 67.776 696.62 68.928Q692.876 70.08 690.644 72.888Q688.412 75.696 688.412 78.864Q688.412 82.752 691.58 85.92Q693.884 88.224 696.044 88.8Q698.924 89.376 699.572 89.664Q700.22 89.952 700.22 90.672Q700.22 92.832 697.772 92.832Q695.324 92.832 692.012 91.032Q688.7 89.232 686.972 86.64Q685.532 84.624 685.244 83.472Q684.956 82.32 684.956 79.008Q684.956 75.696 685.316 74.472Q685.676 73.248 687.116 71.088Q689.276 68.208 692.156 66.624Z" />
  </g>
</svg>