<svg id="Capa_1" enable-background="new 0 0 512 512" height="512" viewBox="0 0 512 512" width="512" xmlns="http://www.w3.org/2000/svg"><g><path d="m511.623 237.917-15.133-15.133 14.871-14.871c-4.003-53.662-26.819-103.568-65.263-142.012-38.438-38.439-88.337-61.254-141.991-65.261l-14.863 14.863-15.128-15.128c-55.255 3.099-106.77 26.081-146.215 65.527-39.446 39.445-62.428 90.96-65.527 146.215l15.128 15.128-14.862 14.862c4.007 53.654 26.822 103.552 65.261 141.992 38.443 38.444 88.35 61.26 142.012 65.263l14.871-14.871 15.133 15.133c55.242-3.106 106.745-26.087 146.181-65.525 39.438-39.437 62.419-90.939 65.525-146.182z" fill="#f4f4f6"/><path d="m127.901 384.099c38.444 38.444 88.35 61.26 142.012 65.263l14.871-14.871 15.133 15.133c55.242-3.106 106.745-26.087 146.181-65.525 39.438-39.437 62.418-90.939 65.525-146.181l-15.133-15.133 14.871-14.871c-4.003-53.662-26.819-103.568-65.263-142.012z" fill="#e7f1f9"/><g><g><path d="m511.362 207.913-14.31-.151c-17.238-.183-34.12-2.595-50.317-7.076l3.219-8.844c2.833-7.784-1.18-16.392-8.965-19.225s-16.393 1.181-19.226 8.965l-3.235 8.889c-16.623-7.532-32.19-17.431-46.267-29.517l6.664-6.664c5.858-5.858 5.858-15.355 0-21.213s-15.355-5.858-21.213 0l-6.664 6.664c-12.085-14.078-21.985-29.644-29.517-46.267l8.889-3.235c2.126-.774 3.971-1.978 5.472-3.479 3.994-3.994 5.553-10.088 3.493-15.747-2.833-7.784-11.441-11.798-19.226-8.965l-8.844 3.219c-4.481-16.197-6.894-33.08-7.077-50.318l-.151-14.309c-5.658-.424-11.356-.64-17.087-.64-4.327 0-8.633.136-12.918.377l.158 14.889c.219 20.682 3.218 40.923 8.795 60.292l-9.861 3.589c-7.784 2.835-11.798 11.441-8.965 19.226 2.833 7.784 11.441 11.798 19.226 8.965l9.826-3.577c9.109 20.666 21.37 39.951 36.523 57.241l-7.429 7.429c-5.858 5.858-5.858 15.355 0 21.213s15.355 5.858 21.213 0l7.429-7.429c17.29 15.154 36.575 27.414 57.241 36.523l-3.577 9.826c-2.833 7.784 1.18 16.392 8.965 19.226 5.659 2.06 11.752.502 15.747-3.493 1.501-1.501 2.706-3.346 3.479-5.472l3.589-9.861c19.369 5.577 39.61 8.576 60.292 8.795l14.889.157c.242-4.284.378-8.589.378-12.916 0-5.732-.216-11.43-.638-17.087z" fill="#ff6378"/><path d="m290.566 342.662-9.826 3.576c-9.109-20.666-21.37-39.951-36.523-57.241l7.429-7.429c5.858-5.858 5.858-15.355 0-21.213s-15.355-5.858-21.213 0l-7.429 7.429c-17.29-15.154-36.575-27.414-57.241-36.523l3.577-9.826c2.833-7.784-1.18-16.392-8.965-19.225-7.784-2.833-16.395 1.179-19.226 8.965l-3.589 9.861c-19.369-5.577-39.61-8.576-60.292-8.795l-14.889-.158c-.243 4.284-.379 8.59-.379 12.917 0 5.731.216 11.429.638 17.086l14.309.151c17.238.183 34.12 2.596 50.318 7.077l-3.219 8.844c-2.833 7.784 1.18 16.392 8.965 19.226 5.659 2.06 11.752.502 15.747-3.493 1.501-1.501 2.706-3.346 3.479-5.472l3.235-8.889c16.623 7.532 32.19 17.431 46.267 29.517l-6.664 6.664c-5.858 5.858-5.858 15.355 0 21.213s15.355 5.858 21.213 0l6.664-6.664c12.085 14.078 21.985 29.644 29.517 46.267l-8.889 3.235c-7.784 2.834-11.798 11.44-8.965 19.226 2.833 7.784 11.441 11.798 19.226 8.965l8.844-3.219c4.481 16.197 6.893 33.079 7.076 50.317l.151 14.31c5.658.423 11.356.639 17.088.639 4.327 0 8.632-.136 12.917-.377l-.157-14.889c-.219-20.682-3.218-40.923-8.795-60.292l9.861-3.589c2.126-.774 3.971-1.978 5.472-3.479 3.994-3.994 5.553-10.088 3.493-15.747-2.833-7.785-11.441-11.798-19.225-8.965z" fill="#ff6378"/><path d="m216.289 316.924 6.664-6.664c12.085 14.078 21.985 29.644 29.517 46.267l-8.889 3.235c-7.784 2.834-11.798 11.44-8.965 19.226 2.833 7.784 11.441 11.798 19.226 8.965l8.844-3.219c4.481 16.197 6.893 33.079 7.076 50.317l.151 14.31c5.657.423 11.355.639 17.087.639 4.327 0 8.632-.136 12.917-.377l-.157-14.889c-.219-20.682-3.218-40.923-8.795-60.292l9.861-3.589c2.126-.774 3.971-1.978 5.472-3.479 3.994-3.994 5.553-10.088 3.493-15.747-2.833-7.784-11.441-11.798-19.226-8.965l-9.826 3.576c-9.109-20.666-21.37-39.951-36.523-57.241l7.429-7.429c5.858-5.858 5.858-15.355 0-21.213l-56.569 56.569c5.858 5.858 15.356 5.858 21.213 0z" fill="#e20059"/></g><g><g><path d="m89.246 507.606c-5.858-5.858-5.858-15.355 0-21.213l40-40c5.858-5.858 15.355-5.858 21.213 0s5.858 15.355 0 21.213l-40 40c-5.858 5.858-15.355 5.858-21.213 0z" fill="#08475e"/></g><g><path d="m4.393 507.607c-5.858-5.858-5.858-15.355 0-21.213l70-70c5.858-5.858 15.355-5.858 21.213 0s5.858 15.355 0 21.213l-70 70c-5.857 5.857-15.355 5.857-21.213 0z" fill="#0a617d"/></g><g><path d="m4.393 422.754c-5.858-5.858-5.858-15.355 0-21.213l40-40c5.858-5.858 15.355-5.858 21.213 0s5.858 15.355 0 21.213l-40 40c-5.857 5.858-15.355 5.858-21.213 0z" fill="#0a617d"/></g></g><g><g><path d="m497.052 207.762c-17.238-.183-34.12-2.595-50.317-7.076l3.219-8.844c2.833-7.784-1.18-16.392-8.965-19.225s-16.393 1.181-19.226 8.965l-3.235 8.889c-16.623-7.532-32.19-17.431-46.267-29.517l6.664-6.664c5.858-5.858 5.858-15.355 0-21.213l-56.569 56.569c5.858 5.858 15.355 5.858 21.213 0l7.429-7.429c17.29 15.154 36.575 27.414 57.241 36.523l-3.577 9.826c-2.833 7.784 1.18 16.392 8.965 19.226 5.659 2.06 11.752.502 15.747-3.493 1.501-1.501 2.706-3.346 3.479-5.472l3.589-9.861c19.369 5.577 39.61 8.576 60.292 8.795l14.889.157c.241-4.286.377-8.591.377-12.918 0-5.732-.216-11.43-.638-17.087z" fill="#e20059"/></g><g><path d="m25.607 507.607 70-70c5.858-5.858 5.858-15.355 0-21.213l-91.214 91.213c5.858 5.857 15.356 5.857 21.214 0z" fill="#08475e"/></g></g></g></g></svg>